<?xml version="1.0" encoding="UTF-8"?>
<svg viewBox="0 0 300 200" xmlns="http://www.w3.org/2000/svg">
 <defs>
  <clipPath id="c">
   <path d="m31.625 931.49c-9.734 0-17.625 14.355-17.625 32.062 0 17.479 7.6897 31.698 17.25 32.062v0.25h37v-64.25h-35.031c-0.52277-0.0849-1.0588-0.125-1.5938-0.125z" fill-rule="evenodd"/>
  </clipPath>
  <clipPath id="b">
   <path d="m68.125 931.49c9.734 0 17.625 14.355 17.625 32.062 0 17.479-7.6897 31.698-17.25 32.062v0.25h-37v-64.25h35.031c0.52277-0.0849 1.0588-0.125 1.5938-0.125z" fill-rule="evenodd"/>
  </clipPath>
  <linearGradient id="a" x1="80.19" x2="72.684" y1="147.84" y2="80.698" gradientUnits="userSpaceOnUse">
   <stop offset="0"/>
   <stop stop-color="#333" offset="1"/>
  </linearGradient>
 </defs>
 <g transform="translate(0 -852.36)">
  <path transform="translate(0 852.36)" d="m20 30h260v150h-260z" fill-rule="evenodd" stroke="#666"/>
  <path d="m20 882.36h260v25h-260z" fill-rule="evenodd" stroke="#666"/>
  <path transform="translate(0 852.36)" d="m20 50h260" fill="#aaa" stroke="#888"/>
  <path d="m20 898.36h260" fill="#aaa" stroke="#888"/>
  <path d="m20 894.36h260" fill="#aaa" stroke="#888"/>
  <path d="m141.97 889.3 5.0307-2.9336 5 3-10.031-0.0663z" fill="#666"/>
  <path transform="translate(0 852.36)" d="m147 34-5.0312 2.9375h0.625l4.4062-2.5625 4.375 2.625h0.625l-5-3z" fill="#888"/>
  <path d="m94.75 931.61h114v64.25h-114z" fill="#eee" fill-rule="evenodd" stroke="#000"/>
  <path d="m51.625 931.49c-9.734 0-17.625 14.355-17.625 32.062 0 17.479 7.6897 31.698 17.25 32.062v0.25h37v-64.25h-35.031c-0.52277-0.0849-1.0588-0.125-1.5938-0.125z" fill="#eee" fill-rule="evenodd" stroke="#000"/>
  <path d="m252.12 931.49c9.734 0 17.625 14.355 17.625 32.062 0 17.479-7.6897 31.698-17.25 32.062v0.25h-37v-64.25h35.031c0.52277-0.0849 1.0588-0.125 1.5938-0.125z" fill="#eee" fill-rule="evenodd" stroke="#000"/>
  <g transform="translate(20)" clip-path="url(#c)" fill-rule="evenodd">
   <path transform="matrix(1.199 0 0 1.199 -42.898 821.85)" d="m102.5 118.12c0 13.876-11.249 25.125-25.125 25.125s-25.125-11.249-25.125-25.125 11.249-25.125 25.125-25.125 25.125 11.249 25.125 25.125z" fill="url(#a)"/>
   <path transform="matrix(.50249 0 0 .50249 10.995 904.13)" d="m102.5 118.12c0 13.876-11.249 25.125-25.125 25.125s-25.125-11.249-25.125-25.125 11.249-25.125 25.125-25.125 25.125 11.249 25.125 25.125z" fill="#eee"/>
  </g>
  <g transform="translate(184)" clip-path="url(#b)" fill-rule="evenodd">
   <path transform="matrix(1.199 0 0 1.199 -42.898 821.85)" d="m94.994 118.12c0 9.7306-7.8882 17.619-17.619 17.619s-17.619-7.8882-17.619-17.619 7.8882-17.619 17.619-17.619 17.619 7.8882 17.619 17.619z" fill="url(#a)"/>
   <path transform="matrix(.50249 0 0 .50249 10.995 904.13)" d="m102.5 118.12c0 13.876-11.249 25.125-25.125 25.125s-25.125-11.249-25.125-25.125 11.249-25.125 25.125-25.125 25.125 11.249 25.125 25.125z" fill="#eee"/>
  </g>
  <path d="m51.625 931.49c-9.734 0-17.625 14.355-17.625 32.062 0 17.479 7.6897 31.698 17.25 32.062v0.25h37v-64.25h-35.031c-0.52277-0.0849-1.0588-0.125-1.5938-0.125z" fill="#eee" fill-rule="evenodd" opacity=".3" stroke="#000"/>
  <path d="m252.12 931.49c9.734 0 17.625 14.355 17.625 32.062 0 17.479-7.6897 31.698-17.25 32.062v0.25h-37v-64.25h35.031c0.52277-0.0849 1.0588-0.125 1.5938-0.125z" fill="#eee" fill-rule="evenodd" opacity=".3" stroke="#000"/>
  <path d="m94.75 931.61h114v14.5h-114z" fill="#333" fill-rule="evenodd" stroke="#000"/>
  <path d="m94.75 980.36h114v14.5h-114z" fill="#333" fill-rule="evenodd" stroke="#000"/>
  <path transform="translate(0 852.36)" d="m100.25 101.5h103.75" fill="none" stroke="#000"/>
  <path d="m100.25 957.86h103.75" fill="none" stroke="#000"/>
  <path d="m100.25 961.86h103.75" fill="none" stroke="#000"/>
  <path d="m100.25 965.86h103.75" fill="none" stroke="#000"/>
  <path d="m100.25 969.86h103.75" fill="none" stroke="#000"/>
  <path d="m100.25 973.86h103.75" fill="none" stroke="#000"/>
  <text x="30.95882" y="890.42346" fill="#eee" font-family="Bitstream Vera Sans" font-size="7.3052">
   <tspan x="30.95882" y="890.42346">Insert this side into recorder</tspan>
  </text>
 </g>
</svg>
